<?xml version="1.0" encoding="iso-8859-1"?>
<!-- Generator: Adobe Illustrator 25.0.1, SVG Export Plug-In . SVG Version: 6.00 Build 0)  -->
<svg version="1.1" id="Layer_1" xmlns="http://www.w3.org/2000/svg" xmlns:xlink="http://www.w3.org/1999/xlink" x="0px" y="0px"
	 viewBox="0 0 1000 1000" style="enable-background:new 0 0 1000 1000;" xml:space="preserve">
<g>
	<path style="fill:#235C20;stroke:#FFFFFF;stroke-miterlimit:10;" d="M898.657,415.913H800.53v-123.18h68.126
		c0,16.569,13.431,30,30,30V415.913z"/>
	<rect x="702.404" y="415.913" style="fill:#237B20;stroke:#FFFFFF;stroke-miterlimit:10;" width="98.126" height="123.18"/>
	<rect x="898.657" y="415.913" style="fill:#237B20;stroke:#FFFFFF;stroke-miterlimit:10;" width="98.126" height="123.18"/>
	<rect x="800.53" y="539.093" style="fill:#235C20;stroke:#FFFFFF;stroke-miterlimit:10;" width="98.126" height="123.18"/>
</g>
<g>
	<path style="fill:#235C20;" d="M89.568,617.193v8.778h-31.21v-6.827h-9.753v4.876h6.827v15.606h-6.827v6.826h-6.827v8.778H31.05
		v-8.778h-2.926v8.778H17.395v-8.778h-6.827v-6.826H3.741v-22.433h10.728v20.482h30.235v-11.704h-6.827v-15.606h24.383v6.827H89.568
		z"/>
	<path style="fill:#235C20;" d="M151.012,617.193v8.778h-34.136v6.827h-10.728v-6.827H72.011v-8.778H99.32v-6.827h6.827v-6.827
		h10.728v6.827h6.827v6.827H151.012z M110.049,612.316v11.704h2.926v-11.704H110.049z"/>
	<path style="fill:#235C20;" d="M185.148,625.971h-51.692v-8.778h27.309v-13.654h24.383V625.971z M171.493,587.933v8.778h-10.728
		v-8.778H171.493z M174.419,617.193v-4.876h-2.926v4.876H174.419z M185.148,587.933v8.778h-10.728v-8.778H185.148z"/>
	<path style="fill:#235C20;" d="M287.556,617.193v8.778H253.42v6.827h-6.827v6.827h-38.038v-8.778h34.136v-6.827h6.827v-13.655
		h10.729v6.827H287.556z"/>
	<path style="fill:#235C20;" d="M308.037,619.144h-6.827v6.827h-31.21v-8.778h27.309v-27.308h10.728V619.144z"/>
	<path style="fill:#235C20;" d="M342.173,589.884v36.087h-10.728v-36.087H342.173z"/>
	<path style="fill:#235C20;" d="M485.543,617.193v8.778h-85.828v-6.827h-6.827v-15.605h10.728v13.654h30.235v-13.654h24.383v13.654
		H485.543z M451.406,587.933v8.778h-10.728v-8.778H451.406z M447.505,612.316h-2.926v4.876h2.926V612.316z"/>
	<path style="fill:#235C20;" d="M560.642,625.971h-92.655v-8.778h54.618v-4.876h-27.308v-8.777h31.21v6.827h6.827v6.827h27.308
		V625.971z"/>
	<path style="fill:#235C20;" d="M649.395,617.193v8.778h-106.31v-8.778h27.309v-6.827h10.728v6.827h2.926v-6.827h6.827v-6.827
		h31.209v13.654H649.395z M611.358,612.316h-16.58v4.876h16.58V612.316z"/>
	<path style="fill:#235C20;" d="M710.839,617.193v8.778h-34.136v6.827h-10.728v-6.827h-34.137v-8.778h27.309v-6.827h6.827v-6.827
		h10.728v6.827h6.827v6.827H710.839z M669.875,612.316v11.704h2.926v-11.704H669.875z"/>
	<path style="fill:#235C20;" d="M731.32,619.144h-6.828v6.827h-31.21v-8.778h27.308v-27.308h10.73V619.144z"/>
	<path style="fill:#235C20;" d="M765.455,589.884v36.087h-10.728v-36.087H765.455z"/>
</g>
</svg>
